<svg xmlns="http://www.w3.org/2000/svg" xmlns:xlink="http://www.w3.org/1999/xlink" width="228" zoomAndPan="magnify" viewBox="0 0 171 234.749995" height="313" preserveAspectRatio="xMidYMid meet" version="1.0"><defs><clipPath id="8ccf81afc5"><path d="M 15 1 L 153.667969 1 L 153.667969 206 L 15 206 Z M 15 1 " clip-rule="nonzero"/></clipPath><clipPath id="f5f607303b"><path d="M 0.0898438 150.726562 L 170.8125 150.726562 L 170.8125 234.5 L 0.0898438 234.5 Z M 0.0898438 150.726562 " clip-rule="nonzero"/></clipPath></defs><g clip-path="url(#8ccf81afc5)"><path fill="#233dff" d="M 81.050781 1.890625 C 45.277344 3.585938 16.121094 33.367188 15.132812 69.160156 C 14.660156 86.292969 20.4375 102.054688 30.3125 114.378906 C 44.914062 132.566406 56.144531 153.285156 64.238281 175.164062 C 67.03125 182.722656 69.628906 190.042969 71.945312 196.851562 C 76.003906 208.746094 92.816406 208.746094 96.875 196.851562 C 99.195312 190.042969 101.769531 182.722656 104.582031 175.164062 C 112.570312 153.5625 123.285156 132.84375 137.929688 115.066406 C 147.785156 103.105469 153.710938 87.796875 153.710938 71.09375 C 153.710938 31.714844 120.835938 0 81.050781 1.890625 Z M 84.398438 119.082031 C 57.90625 119.082031 36.433594 97.609375 36.433594 71.113281 C 36.433594 44.617188 57.90625 23.144531 84.398438 23.144531 C 110.894531 23.144531 132.367188 44.617188 132.367188 71.113281 C 132.367188 97.609375 110.894531 119.082031 84.398438 119.082031 Z M 84.398438 119.082031 " fill-opacity="1" fill-rule="nonzero"/></g><path fill="#233dff" d="M 109.371094 66.21875 L 102.542969 46.550781 C 102.222656 45.605469 101.339844 44.984375 100.355469 44.984375 L 95.652344 44.984375 C 94.363281 44.984375 93.269531 45.992188 93.246094 47.257812 C 93.226562 48.570312 94.277344 49.621094 95.566406 49.621094 L 98.679688 49.621094 L 100.3125 54.34375 C 100.117188 54.257812 99.96875 54.128906 99.773438 54.042969 C 94.167969 51.382812 86.140625 52.089844 83.261719 56.425781 C 81.15625 59.625 75.660156 58.789062 70.488281 57.910156 C 69.261719 57.695312 68.960938 55.523438 67.589844 55.140625 C 62.304688 53.59375 55.046875 53.378906 51.421875 53.570312 C 50.476562 53.613281 49.9375 54.644531 50.410156 55.460938 L 53.203125 60.097656 C 53.480469 60.570312 53.910156 60.914062 54.40625 61.109375 L 56.894531 62.09375 L 61.855469 63.835938 C 65.71875 64.972656 68.960938 67.613281 70.875 71.09375 L 68.167969 72.058594 C 65.914062 68.28125 61.683594 65.789062 56.894531 66.066406 C 50.667969 66.433594 45.644531 71.5 45.34375 77.726562 C 45 84.769531 50.648438 90.609375 57.625 90.609375 C 64.390625 90.609375 69.90625 85.089844 69.90625 78.328125 C 69.90625 77.683594 69.84375 77.0625 69.734375 76.4375 L 72.441406 75.472656 C 72.613281 76.394531 72.71875 77.363281 72.71875 78.328125 C 72.71875 78.351562 72.71875 78.351562 72.71875 78.371094 C 72.71875 80.066406 74.074219 81.464844 75.769531 81.464844 L 92.945312 81.464844 C 94.640625 81.464844 95.996094 80.066406 95.996094 78.371094 C 95.996094 78.351562 95.996094 78.351562 95.996094 78.328125 C 95.996094 72.574219 99.238281 67.550781 104.003906 64.996094 L 104.949219 67.699219 C 101.105469 69.933594 98.570312 74.183594 98.828125 78.992188 C 99.171875 85.242188 104.261719 90.289062 110.507812 90.589844 C 117.550781 90.933594 123.394531 85.285156 123.394531 78.308594 C 123.394531 71.542969 117.875 66.023438 111.109375 66.023438 C 110.53125 66.089844 109.953125 66.132812 109.371094 66.21875 Z M 57.667969 86.015625 C 53.460938 86.015625 50.023438 82.578125 50.023438 78.371094 C 50.023438 74.164062 53.460938 70.726562 57.667969 70.726562 C 60.117188 70.726562 62.285156 71.90625 63.679688 73.710938 L 56.875 76.160156 C 55.671875 76.589844 55.046875 77.921875 55.476562 79.144531 C 55.820312 80.089844 56.722656 80.691406 57.667969 80.691406 C 57.925781 80.691406 58.203125 80.648438 58.460938 80.539062 L 65.289062 78.09375 C 65.289062 78.179688 65.3125 78.265625 65.3125 78.371094 C 65.289062 82.578125 61.875 86.015625 57.667969 86.015625 Z M 118.777344 78.371094 C 118.777344 82.578125 115.339844 86.015625 111.132812 86.015625 C 106.925781 86.015625 103.488281 82.578125 103.488281 78.371094 C 103.488281 75.878906 104.710938 73.691406 106.558594 72.292969 L 108.941406 79.144531 C 109.285156 80.109375 110.167969 80.710938 111.132812 80.710938 C 111.390625 80.710938 111.648438 80.667969 111.90625 80.582031 C 113.109375 80.152344 113.75 78.84375 113.34375 77.621094 L 110.960938 70.769531 C 111.023438 70.769531 111.089844 70.75 111.152344 70.75 C 115.339844 70.726562 118.777344 74.164062 118.777344 78.371094 Z M 118.777344 78.371094 " fill-opacity="1" fill-rule="nonzero"/><g clip-path="url(#f5f607303b)"><path fill="#233dff" d="M 85.464844 155.914062 C 96.632812 155.914062 107.457031 156.972656 117.667969 159.089844 C 127.402344 161.105469 136.144531 163.972656 143.589844 167.625 C 150.691406 171.109375 156.464844 175.277344 160.253906 179.648438 C 163.875 183.847656 165.71875 188.183594 165.71875 192.554688 C 165.71875 196.925781 163.875 201.265625 160.253906 205.464844 C 156.464844 209.835938 150.691406 214.003906 143.589844 217.484375 C 136.144531 221.140625 127.402344 224.007812 117.667969 226.023438 C 107.492188 228.140625 96.667969 229.199219 85.464844 229.199219 C 74.265625 229.199219 63.472656 228.140625 53.261719 226.023438 C 43.53125 224.007812 34.789062 221.140625 27.34375 217.484375 C 20.238281 214.003906 14.46875 209.835938 10.675781 205.464844 C 7.058594 201.265625 5.214844 196.925781 5.214844 192.554688 C 5.214844 188.183594 7.058594 183.847656 10.675781 179.648438 C 14.46875 175.277344 20.238281 171.109375 27.34375 167.625 C 34.789062 163.972656 43.53125 161.105469 53.261719 159.089844 C 63.472656 157.007812 74.300781 155.914062 85.464844 155.914062 M 85.464844 150.789062 C 38.304688 150.789062 0.0898438 169.503906 0.0898438 192.554688 C 0.0898438 215.609375 38.304688 234.320312 85.464844 234.320312 C 132.628906 234.320312 170.839844 215.640625 170.839844 192.554688 C 170.839844 169.503906 132.628906 150.789062 85.464844 150.789062 Z M 85.464844 150.789062 " fill-opacity="1" fill-rule="nonzero"/></g></svg>